<svg width="24" height="24" viewBox="0 0 24 24" fill="none" xmlns="http://www.w3.org/2000/svg">
<rect width="24" height="24" rx="12" fill="#FFC200"/>
<path d="M9.42487 19C9.9784 19 10.4271 18.574 10.4271 18.0485C10.4271 17.523 9.9784 17.097 9.42487 17.097C8.87133 17.097 8.42261 17.523 8.42261 18.0485C8.42261 18.574 8.87133 19 9.42487 19Z" fill="#054AAE"/>
<path d="M15.158 19C15.7116 19 16.1603 18.574 16.1603 18.0485C16.1603 17.523 15.7116 17.097 15.158 17.097C14.6045 17.097 14.1558 17.523 14.1558 18.0485C14.1558 18.574 14.6045 19 15.158 19Z" fill="#054AAE"/>
<path d="M15.9688 9.41295H17.4214C17.8002 9.41295 18.0768 9.75307 17.9809 10.1009L16.6436 14.9505C16.577 15.192 16.3472 15.3604 16.0843 15.3604H8.00114L6.77014 9.41293H8.91016L15.9688 9.41295Z" fill="#054AAE"/>
<path d="M16.6003 17.3207H8.25108C7.89198 17.3207 7.57071 17.1442 7.39165 16.8487C7.21263 16.5532 7.21355 16.2008 7.39415 15.9061L7.75279 15.3209L6.53892 9.45608L6.10535 7.36156H3.23562C3.10549 7.36156 3 7.26141 3 7.13787C3 7.01434 3.10549 6.91418 3.23562 6.91418H6.29917C6.41178 6.91418 6.50865 6.98984 6.53037 7.09473L7.00131 9.36981L8.23231 15.3173C8.24333 15.3706 8.23355 15.426 8.20477 15.4729L7.80146 16.1311C7.70669 16.2857 7.70622 16.4706 7.80014 16.6256C7.89407 16.7807 8.06265 16.8733 8.25106 16.8733H16.6003C16.7304 16.8733 16.8359 16.9734 16.8359 17.097C16.8359 17.2205 16.7304 17.3207 16.6003 17.3207Z" fill="#2F7339"/>
<path d="M12.4395 13.2025C14.6404 13.2025 16.4695 11.5024 16.4695 9.35126C16.4695 7.20011 14.6404 5.5 12.4395 5.5C10.2386 5.5 8.40955 7.20011 8.40955 9.35126C8.40955 11.5024 10.2386 13.2025 12.4395 13.2025Z" fill="#FFC200" stroke="#2F7339"/>
<path d="M11.3366 10.1439C11.1721 10.1456 11.0606 10.3037 11.1215 10.4488C11.1564 10.5321 11.2035 10.609 11.263 10.6795C11.3885 10.8286 11.5513 10.9426 11.7513 11.0218C11.9022 11.0816 12.0641 11.1187 12.237 11.1334V11.4114C12.237 11.496 12.3093 11.5647 12.3984 11.5647C12.4876 11.5647 12.5598 11.496 12.5598 11.4114V11.1348C12.7361 11.1217 12.9021 11.0855 13.0576 11.0257C13.2567 10.949 13.4172 10.8358 13.5392 10.6859C13.6612 10.5361 13.7222 10.3513 13.7222 10.1316V10.1291C13.7222 9.86004 13.6289 9.65102 13.4423 9.50199C13.2558 9.353 12.9894 9.23933 12.6432 9.16098L12.5598 9.14185V7.96942C12.6475 7.98016 12.7287 8.00047 12.8033 8.03065C12.919 8.07751 13.0127 8.14476 13.0845 8.23245C13.1245 8.28142 13.1556 8.33582 13.1778 8.39565C13.2114 8.48643 13.3046 8.54494 13.4059 8.54163C13.566 8.53638 13.6744 8.38326 13.6175 8.24111C13.5862 8.16319 13.544 8.0905 13.4908 8.023C13.376 7.87739 13.2248 7.76416 13.0374 7.68328C12.8916 7.62036 12.7323 7.58223 12.5598 7.56826V7.29118C12.5598 7.20654 12.4876 7.13791 12.3984 7.13791C12.3092 7.13791 12.237 7.20652 12.237 7.29118V7.5693C12.0646 7.58427 11.9063 7.62223 11.7621 7.68328C11.571 7.76418 11.4203 7.87784 11.31 8.02428C11.1997 8.17076 11.1446 8.34358 11.1446 8.54282V8.54537C11.1446 8.79741 11.2324 8.99837 11.4083 9.1482C11.584 9.29807 11.8396 9.4113 12.1751 9.48794L12.237 9.50214V10.7335C12.1187 10.7216 12.0171 10.6975 11.9329 10.6604C11.8091 10.6059 11.7145 10.5331 11.6491 10.442C11.6137 10.3928 11.585 10.3411 11.563 10.2867C11.5279 10.1998 11.4397 10.1427 11.3416 10.1438L11.3366 10.1439ZM11.7526 8.84804C11.6594 8.75524 11.6128 8.64668 11.6128 8.52235V8.5198C11.6128 8.42616 11.6428 8.33676 11.7029 8.25158C11.763 8.16645 11.8522 8.09664 11.9706 8.04212C12.0476 8.0067 12.1365 7.98299 12.237 7.9706V9.06769C12.0067 9.01335 11.8452 8.94016 11.7526 8.84804ZM13.254 10.1597C13.254 10.267 13.2262 10.365 13.1706 10.4535C13.115 10.5421 13.0257 10.6123 12.9029 10.6642C12.8109 10.7031 12.6966 10.7274 12.5598 10.7372V9.57618L12.576 9.57988C12.8414 9.64118 13.0208 9.71782 13.1141 9.80977C13.2074 9.90174 13.254 10.0175 13.254 10.1572V10.1597H13.254Z" fill="#2F7339"/>
</svg>
