<svg width="13" height="14" viewBox="0 0 13 14" fill="none" xmlns="http://www.w3.org/2000/svg">
<path d="M1.3 13.5C0.9425 13.5 0.636458 13.3729 0.381875 13.1186C0.127292 12.8643 0 12.5587 0 12.2016V3.11298C0 2.75593 0.127292 2.45027 0.381875 2.196C0.636458 1.94174 0.9425 1.81461 1.3 1.81461H7.10125L5.80125 3.11298H1.3V12.2016H10.4V7.68976L11.7 6.39139V12.2016C11.7 12.5587 11.5727 12.8643 11.3181 13.1186C11.0635 13.3729 10.7575 13.5 10.4 13.5H1.3ZM3.9 9.60487V6.84582L9.86375 0.889513C9.99375 0.759675 10.14 0.662297 10.3025 0.597378C10.465 0.532459 10.6275 0.5 10.79 0.5C10.9633 0.5 11.1285 0.532459 11.2856 0.597378C11.4427 0.662297 11.5862 0.759675 11.7162 0.889513L12.6262 1.81461C12.7454 1.94444 12.8375 2.08781 12.9025 2.24469C12.9675 2.40158 13 2.56117 13 2.72347C13 2.88577 12.9702 3.04536 12.9106 3.20225C12.851 3.35913 12.7562 3.5025 12.6262 3.63233L6.6625 9.60487H3.9ZM5.2 8.30649H6.11L9.88 4.5412L9.425 4.08677L8.95375 3.63233L5.2 7.3814V8.30649Z" fill="#FFC200"/>
</svg>
