<svg viewBox="0 0 14 14" fill="none" xmlns="http://www.w3.org/2000/svg">
<path d="M1.33333 13.35C0.966667 13.35 0.652778 13.2194 0.391667 12.9583C0.130556 12.6972 0 12.3833 0 12.0167V2.68333C0 2.31667 0.130556 2.00278 0.391667 1.74167C0.652778 1.48056 0.966667 1.35 1.33333 1.35H7.28333L5.95 2.68333H1.33333V12.0167H10.6667V7.38333L12 6.05V12.0167C12 12.3833 11.8694 12.6972 11.6083 12.9583C11.3472 13.2194 11.0333 13.35 10.6667 13.35H1.33333ZM4 9.35V6.51667L10.1167 0.4C10.25 0.266667 10.4 0.166667 10.5667 0.1C10.7333 0.0333333 10.9 0 11.0667 0C11.2444 0 11.4139 0.0333333 11.575 0.1C11.7361 0.166667 11.8833 0.266667 12.0167 0.4L12.95 1.35C13.0722 1.48333 13.1667 1.63056 13.2333 1.79167C13.3 1.95278 13.3333 2.11667 13.3333 2.28333C13.3333 2.45 13.3028 2.61389 13.2417 2.775C13.1806 2.93611 13.0833 3.08333 12.95 3.21667L6.83333 9.35H4ZM5.33333 8.01667H6.26667L10.1333 4.15L9.66667 3.68333L9.18333 3.21667L5.33333 7.06667V8.01667Z" fill="#FFC200"/>
</svg>
